<svg width="16" height="16" viewBox="0 0 16 16" fill="none" xmlns="http://www.w3.org/2000/svg">
<path d="M2.05013 4.01188C0.740915 5.32132 0.00376267 7.09609 1.43644e-05 8.94775C-0.00373394 10.7994 0.726227 12.5772 2.03013 13.8919C3.50013 10.4919 6.12013 7.65188 9.39013 5.96188C6.5677 8.35005 4.66245 11.6445 4.00013 15.2819C6.60013 16.5119 9.80013 16.0619 11.9501 13.9119C14.9401 10.9219 15.7801 2.77188 15.9601 0.531884C15.9664 0.460709 15.957 0.389025 15.9326 0.321877C15.9082 0.254729 15.8693 0.193748 15.8188 0.143225C15.7683 0.0927017 15.7073 0.0538641 15.6401 0.0294448C15.573 0.00502558 15.5013 -0.00438191 15.4301 0.00188411C13.1901 0.181884 5.04013 1.02188 2.05013 4.01188Z" fill="#FFBB00"/>
</svg>
