<svg width="140" height="38" viewBox="0 0 140 38" fill="none" xmlns="http://www.w3.org/2000/svg">
<g clip-path="url(#clip0_3_13)">
<path d="M11.394 22.5209V27.4551C11.394 29.9222 10.274 30.8118 8.494 30.8118C6.714 30.8118 5.595 29.9222 5.595 27.4551V8.80205C5.595 6.33496 6.715 5.39683 8.495 5.39683C10.275 5.39683 11.394 6.33496 11.394 8.80205V12.5032H16.684V9.14742C16.684 3.62048 13.835 0.462646 8.342 0.462646C2.848 0.462646 0 3.62048 0 9.14742V27.1097C0 32.6367 2.848 35.7955 8.342 35.7955C13.835 35.7955 16.684 32.6367 16.684 27.1097V22.5209H11.394ZM32.503 0.857497L38.2 35.4006H32.554L31.587 29.1335H24.721L23.754 35.4006H18.617L24.314 0.857497H32.503ZM28.078 6.97623L25.433 24.4457H30.824L28.18 6.97526H28.079L28.078 6.97623ZM58.19 35.4006H52.493C52.188 34.512 51.984 33.9687 51.984 31.1562V25.7282C51.984 22.5209 50.865 21.3364 48.322 21.3364H46.389V35.4006H40.794V0.857497H49.238C55.036 0.857497 57.528 3.47302 57.528 8.80302V11.5165C57.528 15.0692 56.358 17.3394 53.866 18.4744C56.664 19.7075 57.579 22.2735 57.579 25.8767V31.2057C57.579 32.8841 57.63 34.1171 58.189 35.4006H58.19ZM49.085 5.79168H46.389V16.4022H48.576C50.662 16.4022 51.933 15.5145 51.933 12.7506V9.34533C51.933 6.87824 51.069 5.79265 49.085 5.79265V5.79168ZM75.242 0.857497L80.939 35.4006H75.293L74.327 29.1335H67.46L66.494 35.4006H61.356L67.053 0.857497H75.243H75.242ZM70.817 6.97623L68.172 24.4457H73.564L70.919 6.97526H70.817V6.97623ZM86.115 0.857497H80.469L85.962 35.4006H94.304L99.797 0.857497H94.66L90.438 29.0335H90.336L86.115 0.857497ZM113.213 0.857497L118.91 35.4006H113.264L112.298 29.1335H105.431L104.464 35.4006H99.327L105.024 0.857497H113.213ZM108.788 6.97623L106.143 24.4457H111.535L108.89 6.97526H108.788V6.97623ZM134.252 35.4006H140V0.857497H135.015V21.5333H134.913L129.267 0.857497H122.248V35.4006H127.284V10.3805H127.385L134.252 35.4006Z" fill="#9C9C9C"/>
</g>
<defs>
<clipPath id="clip0_3_13">
<rect width="140" height="36.8657" fill="white" transform="translate(0 0.462646)"/>
</clipPath>
</defs>
</svg>
