<svg width="152" height="39" viewBox="0 0 152 39" fill="none" xmlns="http://www.w3.org/2000/svg">
<g clip-path="url(#clip0_3_15)">
<path fill-rule="evenodd" clip-rule="evenodd" d="M23.024 16.8097H25.741C28.549 16.8097 30.066 20.0034 28.237 22.0728L25.577 25.0802C25.8651 26.8639 26.836 28.4766 28.296 29.5963C29.7574 30.7165 31.6 31.2617 33.457 31.1232C35.3141 30.9848 37.0492 30.1729 38.317 28.8492C39.5838 27.5261 40.2891 25.7878 40.292 23.982C40.2918 23.6679 40.3554 23.3567 40.4792 23.0665C40.6031 22.7762 40.7848 22.5125 41.0138 22.2904C41.2429 22.0684 41.5149 21.8924 41.8142 21.7724C42.1135 21.6525 42.4342 21.591 42.758 21.5916C43.4117 21.5918 44.0386 21.8437 44.5011 22.2918C44.9636 22.74 45.224 23.3478 45.225 23.982C45.2248 26.4907 44.4103 28.9357 42.897 30.97C41.764 32.49 40.2789 33.7306 38.5612 34.592C36.8436 35.4534 34.9414 35.9113 33.008 35.9291C31.0745 35.9468 29.1638 35.5238 27.4297 34.6942C25.6956 33.8645 24.1865 32.6513 23.024 31.1524C21.8616 32.6513 20.3525 33.8645 18.6184 34.6942C16.8842 35.5238 14.9735 35.9468 13.0401 35.9291C11.1066 35.9113 9.20446 35.4534 7.48682 34.592C5.76919 33.7306 4.28405 32.49 3.15102 30.97C1.63737 28.9358 0.822497 26.4908 0.822022 23.982C0.821759 23.6678 0.885411 23.3566 1.00933 23.0662C1.13325 22.7759 1.31501 22.5122 1.54418 22.2901C1.77336 22.068 2.04545 21.892 2.34486 21.7722C2.64427 21.6523 2.96512 21.5909 3.28902 21.5916C3.94271 21.5918 4.56959 21.8437 5.0321 22.2918C5.49461 22.74 5.75496 23.3478 5.75602 23.982C5.75325 25.7907 6.45555 27.5336 7.72202 28.8609C8.66766 29.8518 9.88206 30.564 11.2259 30.9159C12.5698 31.2677 13.9886 31.2449 15.3198 30.8501C16.6509 30.4553 17.8403 29.7045 18.7516 28.6838C19.6629 27.663 20.2592 26.4138 20.472 25.0792L17.81 22.0718C15.982 20.0034 17.498 16.8107 20.31 16.8107H23.024V16.8097Z" fill="#9C9C9C"/>
<path d="M34.5349 10.4358C35.1825 10.4363 35.8238 10.3131 36.4223 10.073C37.0207 9.83303 37.5646 9.48099 38.0228 9.03701C38.481 8.59304 38.8445 8.06584 39.0927 7.48553C39.3408 6.90522 39.4686 6.28317 39.4689 5.65492C39.4686 5.02667 39.3408 4.40462 39.0927 3.82431C38.8445 3.244 38.481 2.7168 38.0228 2.27283C37.5646 1.82885 37.0207 1.47681 36.4223 1.2368C35.8238 0.996786 35.1825 0.873515 34.5349 0.874025C33.8874 0.873643 33.2461 0.997008 32.6478 1.23708C32.0494 1.47714 31.5057 1.82921 31.0476 2.27317C30.5895 2.71713 30.2261 3.24429 29.978 3.82453C29.73 4.40478 29.6021 5.02675 29.6019 5.65492C29.6021 6.28309 29.73 6.90506 29.978 7.48531C30.2261 8.06555 30.5895 8.59271 31.0476 9.03667C31.5057 9.48063 32.0494 9.8327 32.6478 10.0728C33.2461 10.3128 33.8874 10.4362 34.5349 10.4358ZM11.5119 10.4358C12.1594 10.4362 12.8006 10.3128 13.399 10.0728C13.9973 9.8327 14.5411 9.48063 14.9991 9.03667C15.4572 8.59271 15.8207 8.06555 16.0687 7.48531C16.3168 6.90506 16.4446 6.28309 16.4449 5.65492C16.4446 5.02675 16.3168 4.40478 16.0687 3.82453C15.8207 3.24429 15.4572 2.71713 14.9991 2.27317C14.5411 1.82921 13.9973 1.47714 13.399 1.23708C12.8006 0.997008 12.1594 0.873643 11.5119 0.874025C10.8643 0.873515 10.223 0.996786 9.62449 1.2368C9.02602 1.47681 8.48216 1.82885 8.02397 2.27283C7.56578 2.7168 7.20223 3.244 6.95411 3.82431C6.70599 4.40462 6.57814 5.02667 6.57788 5.65492C6.57814 6.28317 6.70599 6.90522 6.95411 7.48553C7.20223 8.06584 7.56578 8.59304 8.02397 9.03701C8.48216 9.48099 9.02602 9.83303 9.62449 10.073C10.223 10.3131 10.8643 10.4363 11.5119 10.4358ZM79.4449 2.04208C80.2049 2.04208 80.8289 2.25261 81.3169 2.67365C81.8049 3.0947 82.0489 3.64768 82.0489 4.33261V27.9412C82.0489 28.6523 81.8189 29.2179 81.3569 29.6389C80.8969 30.06 80.2859 30.2705 79.5269 30.2705C78.7669 30.2705 78.1569 30.06 77.6949 29.6399C77.2339 29.2179 77.0029 28.6523 77.0029 27.9422V26.9545C76.4059 28.0334 75.5379 28.8754 74.3979 29.4808C73.2859 30.0862 72.0109 30.3889 70.5729 30.3889C68.8629 30.3889 67.3309 29.9678 65.9749 29.1257C64.6449 28.2837 63.6009 27.0991 62.8409 25.5721C62.1079 24.0198 61.7419 22.2435 61.7419 20.2431C61.7419 18.2426 62.1079 16.4925 62.8409 14.9916C63.6009 13.4918 64.6449 12.3334 65.9749 11.5175C67.3039 10.7016 68.8369 10.2932 70.5729 10.2932C72.0109 10.2932 73.2859 10.5833 74.3989 11.1625C75.4834 11.7152 76.3751 12.5669 76.9619 13.6101V4.25305C76.9619 3.59529 77.1789 3.0685 77.6129 2.67365C78.0749 2.25261 78.6849 2.04208 79.4449 2.04208ZM71.9159 26.5597C73.5439 26.5597 74.7919 26.0203 75.6599 24.9405C76.5549 23.8617 77.0029 22.3211 77.0029 20.3216C77.0029 18.3212 76.5549 16.7942 75.6599 15.7425C74.7919 14.6628 73.5579 14.1224 71.9569 14.1224C70.3289 14.1224 69.0669 14.6492 68.1719 15.7028C67.2769 16.7554 66.8289 18.2688 66.8289 20.2431C66.8289 22.2435 67.2769 23.7957 68.1719 24.9017C69.0669 26.0077 70.3149 26.5597 71.9159 26.5597ZM96.3569 30.3889C94.3229 30.3889 92.5319 29.9814 90.9859 29.1655C89.4659 28.3496 88.2859 27.1787 87.4449 25.6516C86.6039 24.1246 86.1829 22.3483 86.1829 20.3216C86.1829 18.295 86.6029 16.5313 87.4449 15.0314C88.2859 13.5044 89.4659 12.3334 90.9849 11.5175C92.5319 10.7016 94.3229 10.2932 96.3569 10.2932C98.3919 10.2932 100.169 10.7007 101.688 11.5175C103.211 12.3098 104.447 13.5363 105.229 15.0314C106.07 16.5313 106.491 18.295 106.491 20.3216C106.491 22.3492 106.07 24.1246 105.229 25.6516C104.447 27.1468 103.211 28.3732 101.688 29.1655C100.169 29.9804 98.3919 30.3889 96.3579 30.3889H96.3569ZM96.3169 26.5597C97.9719 26.5597 99.2329 26.0329 100.101 24.9803C100.97 23.9277 101.404 22.3745 101.404 20.3216C101.404 18.295 100.97 16.7554 100.101 15.7028C99.2329 14.623 97.9849 14.0836 96.3569 14.0836C94.7299 14.0836 93.4669 14.623 92.5729 15.7028C91.7049 16.7554 91.2699 18.295 91.2699 20.3216C91.2699 22.3745 91.7039 23.9277 92.5729 24.9803C93.4409 26.0329 94.6889 26.5597 96.3169 26.5597ZM127.538 10.3728C128.298 10.3728 128.908 10.5833 129.369 11.0034C129.831 11.4254 130.061 11.991 130.061 12.7011V28.2963C130.061 31.3231 129.193 33.6127 127.457 35.1669C125.72 36.7191 123.157 37.4952 119.765 37.4952C116.808 37.4952 114.339 36.9568 112.359 35.877C111.355 35.2978 110.853 34.6003 110.853 33.7844C110.853 33.2052 110.989 32.7454 111.26 32.4029C111.558 32.0604 111.938 31.8887 112.399 31.8887C112.644 31.8887 112.942 31.9421 113.295 32.0478C113.647 32.1788 114.014 32.3243 114.393 32.4815C115.243 32.8322 116.112 33.1354 116.998 33.3895C117.785 33.6001 118.68 33.7058 119.684 33.7058C123.238 33.7058 125.015 32.0216 125.015 28.6513V26.1251C124.418 27.2048 123.55 28.046 122.411 28.6523C121.271 29.2315 119.969 29.5206 118.504 29.5206C116.767 29.5206 115.221 29.1257 113.864 28.337C112.535 27.5201 111.491 26.389 110.731 24.9415C109.971 23.4931 109.591 21.8225 109.591 19.9268C109.591 18.0321 109.958 16.3605 110.69 14.9131C111.45 13.4384 112.508 12.3072 113.864 11.5175C115.221 10.7016 116.767 10.2932 118.504 10.2932C119.969 10.2932 121.271 10.5959 122.411 11.2013C123.521 11.7525 124.43 12.6207 125.015 13.6887V12.6623C125.015 11.9784 125.246 11.4254 125.707 11.0034C126.168 10.5833 126.779 10.3728 127.538 10.3728ZM119.847 25.6914C121.475 25.6914 122.736 25.1772 123.631 24.1518C124.554 23.1244 125.015 21.7167 125.015 19.9268C125.015 18.1107 124.554 16.6894 123.631 15.663C122.736 14.6366 121.475 14.1234 119.847 14.1234C118.246 14.1234 116.984 14.6366 116.062 15.663C115.14 16.6894 114.678 18.1107 114.678 19.9268C114.678 21.7167 115.14 23.1244 116.062 24.1518C116.984 25.1782 118.246 25.6914 119.847 25.6914ZM142.533 30.3889C139.576 30.3889 137.189 29.8233 135.371 28.6911C134.503 28.1915 134.069 27.4804 134.069 26.5597C134.069 26.0329 134.218 25.6119 134.516 25.2966C134.815 24.9541 135.181 24.7824 135.615 24.7824C136.076 24.7824 136.714 24.9939 137.528 25.4149C138.396 25.8098 139.183 26.1125 139.888 26.323C140.621 26.5335 141.543 26.6383 142.655 26.6383C143.795 26.6383 144.677 26.4539 145.301 26.0853C145.952 25.7166 146.277 25.2044 146.277 24.5457C146.277 24.0994 146.142 23.7434 145.87 23.4804C145.626 23.2166 145.165 22.9798 144.487 22.7693C143.835 22.5326 142.832 22.2697 141.475 21.9796C139.061 21.5062 137.324 20.8348 136.266 19.9666C135.235 19.0983 134.72 17.9001 134.72 16.3741C134.72 15.2157 135.072 14.1757 135.778 13.2541C136.483 12.3072 137.446 11.5835 138.667 11.0829C139.915 10.5571 141.326 10.2932 142.899 10.2932C144.039 10.2932 145.138 10.4387 146.196 10.7278C147.205 10.9706 148.167 11.3703 149.045 11.9114C149.913 12.4382 150.347 13.1357 150.347 14.005C150.347 14.5308 150.198 14.979 149.899 15.3467C149.601 15.6892 149.234 15.8609 148.8 15.8609C148.502 15.8609 148.203 15.8075 147.905 15.7028C147.548 15.5264 147.195 15.342 146.847 15.1498C146.06 14.7549 145.382 14.4658 144.812 14.2815C144.242 14.071 143.537 13.9652 142.696 13.9652C141.692 13.9652 140.892 14.1631 140.295 14.557C139.725 14.9519 139.44 15.4922 139.44 16.1762C139.44 16.834 139.739 17.3345 140.336 17.676C140.933 18.0185 142.086 18.361 143.795 18.7034C145.613 19.0721 147.037 19.4922 148.068 19.9666C149.099 20.44 149.831 21.0328 150.265 21.7429C150.727 22.454 150.957 23.3621 150.957 24.4671C150.957 26.257 150.184 27.6919 148.638 28.7707C147.118 29.8495 145.083 30.3889 142.533 30.3889Z" fill="#9C9C9C"/>
</g>
<defs>
<clipPath id="clip0_3_15">
<rect width="152" height="37.8358" fill="white" transform="translate(0 0.462646)"/>
</clipPath>
</defs>
</svg>
