<svg width="164" height="38" viewBox="0 0 164 38" fill="none" xmlns="http://www.w3.org/2000/svg">
<g clip-path="url(#clip0_3_18)">
<path d="M2.688 29.637C1.876 29.637 1.218 29.3925 0.714 28.9035C0.238 28.4146 0 27.7762 0 26.9885V3.1519C0 2.36414 0.224 1.75295 0.672 1.31832C1.148 0.883691 1.792 0.666378 2.604 0.666378H17.346C19.054 0.666378 19.908 1.37265 19.908 2.78518C19.908 4.17056 19.054 4.86324 17.346 4.86324H5.334V12.6865H16.506C18.214 12.6865 19.068 13.3928 19.068 14.8053C19.068 16.1907 18.214 16.8834 16.506 16.8834H5.334V26.9885C5.334 27.7762 5.096 28.4146 4.62 28.9035C4.144 29.3925 3.5 29.637 2.688 29.637ZM27.613 29.637C26.857 29.637 26.227 29.4332 25.723 29.0258C25.247 28.5912 25.009 27.98 25.009 27.1922V2.86668C25.009 2.07892 25.247 1.4813 25.723 1.07384C26.227 0.666378 26.857 0.462646 27.613 0.462646C28.369 0.462646 28.999 0.666378 29.503 1.07384C30.007 1.4813 30.259 2.07892 30.259 2.86668V27.1922C30.259 27.98 30.007 28.5912 29.503 29.0258C28.999 29.4332 28.369 29.637 27.613 29.637ZM51.927 23.9325C52.403 23.9325 52.781 24.1091 53.061 24.4622C53.369 24.8153 53.523 25.2907 53.523 25.8883C53.523 26.7304 53.005 27.4367 51.969 28.0071C51.017 28.5232 49.939 28.9443 48.735 29.2703C47.531 29.5691 46.383 29.7185 45.291 29.7185C41.987 29.7185 39.369 28.7949 37.437 26.9477C35.505 25.1006 34.539 22.5743 34.539 19.3689C34.539 17.3316 34.959 15.5252 35.799 13.9497C36.639 12.3741 37.815 11.1518 39.327 10.2825C40.867 9.41324 42.603 8.97862 44.535 8.97862C46.383 8.97862 47.993 9.3725 49.365 10.1603C50.737 10.948 51.801 12.0618 52.557 13.5015C53.313 14.9412 53.691 16.6389 53.691 18.5947C53.691 19.7628 53.159 20.3468 52.095 20.3468H39.705C39.873 22.2212 40.419 23.6065 41.343 24.5029C42.267 25.3722 43.611 25.8068 45.375 25.8068C46.271 25.8068 47.055 25.6982 47.727 25.4809C48.427 25.2635 49.211 24.9647 50.079 24.5844C50.919 24.1498 51.535 23.9325 51.927 23.9325ZM44.66 12.5643C43.232 12.5643 42.084 12.9989 41.216 13.8682C40.376 14.7374 39.872 15.987 39.704 17.6168H49.196C49.14 15.9598 48.72 14.7103 47.936 13.8682C47.152 12.9989 46.06 12.5643 44.66 12.5643ZM75.383 25.6438C75.887 26.1328 76.139 26.6897 76.139 27.3144C76.139 27.9121 75.901 28.4553 75.425 28.9443C74.949 29.4061 74.389 29.637 73.745 29.637C73.045 29.637 72.443 29.3518 71.939 28.7813L66.017 22.4249L60.095 28.7813C59.563 29.3246 58.961 29.5962 58.289 29.5962C57.673 29.5962 57.127 29.3653 56.651 28.9035C56.175 28.4418 55.937 27.9121 55.937 27.3144C55.937 26.6897 56.189 26.1328 56.693 25.6438L62.825 19.1652L57.029 13.0532C56.525 12.5643 56.273 12.0074 56.273 11.3826C56.273 10.7579 56.511 10.2282 56.987 9.79354C57.463 9.33175 58.009 9.10086 58.625 9.10086C59.297 9.10086 59.899 9.3725 60.431 9.91578L66.017 15.8647L71.603 9.91578C72.135 9.3725 72.737 9.10086 73.409 9.10086C74.053 9.10086 74.599 9.33175 75.047 9.79354C75.523 10.2282 75.761 10.7579 75.761 11.3826C75.761 12.0074 75.509 12.5643 75.005 13.0532L69.209 19.1652L75.383 25.6438ZM98.619 14.5609C100.327 15.0226 101.643 15.8647 102.567 17.0871C103.519 18.3095 103.995 19.8035 103.995 21.5692C103.995 24.014 103.085 25.9291 101.265 27.3144C99.473 28.6998 96.995 29.3925 93.831 29.3925H82.995C82.183 29.3925 81.539 29.1752 81.063 28.7406C80.615 28.3059 80.391 27.6947 80.391 26.907V3.1519C80.391 2.36414 80.615 1.75295 81.063 1.31832C81.539 0.883691 82.183 0.666378 82.995 0.666378H93.41C96.49 0.666378 98.898 1.3319 100.634 2.66295C102.398 3.96683 103.28 5.80041 103.28 8.16369C103.28 9.68489 102.86 11.0023 102.02 12.1161C101.208 13.2298 100.074 14.0447 98.618 14.5609H98.619ZM85.683 12.768H92.529C96.253 12.768 98.115 11.4234 98.115 8.73414C98.115 7.37593 97.653 6.37086 96.729 5.71892C95.805 5.06698 94.405 4.741 92.529 4.741H85.683V12.768ZM93.243 25.3179C95.203 25.3179 96.631 24.9783 97.527 24.2992C98.423 23.6201 98.871 22.5607 98.871 21.121C98.871 19.6813 98.409 18.6083 97.485 17.9021C96.589 17.1958 95.175 16.8426 93.243 16.8426H85.683V25.3179H93.243ZM111.203 29.637C110.447 29.637 109.817 29.4332 109.313 29.0258C108.837 28.5912 108.599 27.98 108.599 27.1922V2.86668C108.599 2.07892 108.837 1.4813 109.313 1.07384C109.817 0.666378 110.447 0.462646 111.203 0.462646C111.959 0.462646 112.589 0.666378 113.093 1.07384C113.597 1.4813 113.849 2.07892 113.849 2.86668V27.1922C113.849 27.98 113.597 28.5912 113.093 29.0258C112.589 29.4332 111.959 29.637 111.203 29.637ZM128.629 29.7185C126.529 29.7185 124.681 29.2974 123.085 28.4553C121.517 27.6132 120.299 26.4044 119.431 24.8289C118.563 23.2534 118.129 21.4198 118.129 19.3282C118.129 17.2365 118.563 15.4165 119.431 13.8682C120.299 12.2926 121.517 11.0838 123.085 10.2418C124.681 9.39966 126.529 8.97862 128.629 8.97862C130.729 8.97862 132.563 9.39966 134.131 10.2418C135.703 11.0596 136.978 12.3253 137.785 13.8682C138.653 15.4165 139.087 17.2365 139.087 19.3282C139.087 21.4198 138.653 23.2534 137.785 24.8289C136.978 26.3718 135.703 27.6375 134.131 28.4553C132.563 29.2974 130.729 29.7185 128.629 29.7185ZM128.587 25.7661C130.295 25.7661 131.597 25.2228 132.493 24.1362C133.389 23.0497 133.837 21.447 133.837 19.3282C133.837 17.2365 133.389 15.6474 132.493 14.5609C131.597 13.4471 130.309 12.8903 128.629 12.8903C126.949 12.8903 125.647 13.4471 124.723 14.5609C123.827 15.6474 123.379 17.2365 123.379 19.3282C123.379 21.447 123.827 23.0497 124.723 24.1362C125.619 25.2228 126.907 25.7661 128.587 25.7661ZM160.809 9.06011C161.593 9.06011 162.223 9.27742 162.699 9.71205C163.175 10.1467 163.413 10.7307 163.413 11.4641V27.5589C163.413 30.6828 162.517 33.0461 160.725 34.6488C158.933 36.2515 156.287 37.0528 152.787 37.0528C149.735 37.0528 147.187 36.4959 145.143 35.3822C144.107 34.7846 143.589 34.0647 143.589 33.2226C143.589 32.625 143.729 32.1497 144.009 31.7965C144.317 31.4434 144.709 31.2668 145.185 31.2668C145.437 31.2668 145.745 31.3212 146.109 31.4298C146.473 31.5656 146.851 31.715 147.243 31.878C148.251 32.2855 149.147 32.5979 149.931 32.8152C150.743 33.0325 151.667 33.1412 152.703 33.1412C156.371 33.1412 158.205 31.4026 158.205 27.9256V25.3179C157.589 26.4316 156.693 27.3009 155.517 27.9256C154.341 28.5232 152.997 28.8221 151.485 28.8221C149.693 28.8221 148.097 28.4146 146.697 27.5997C145.325 26.7576 144.247 25.5895 143.463 24.0955C142.679 22.6015 142.287 20.8765 142.287 18.9207C142.287 16.9649 142.665 15.24 143.421 13.7459C144.205 12.2247 145.297 11.0567 146.697 10.2418C148.097 9.39966 149.693 8.97862 151.485 8.97862C152.997 8.97862 154.341 9.29101 155.517 9.91578C156.663 10.4844 157.601 11.3804 158.205 12.4828V11.4234C158.205 10.7171 158.443 10.1467 158.919 9.71205C159.395 9.27742 160.025 9.06011 160.809 9.06011ZM152.871 24.8697C154.551 24.8697 155.853 24.34 156.777 23.2806C157.729 22.2212 158.205 20.7679 158.205 18.9207C158.205 17.0464 157.729 15.5795 156.777 14.5201C155.853 13.4607 154.551 12.931 152.871 12.931C151.219 12.931 149.917 13.4607 148.965 14.5201C148.013 15.5795 147.537 17.0464 147.537 18.9207C147.537 20.7679 148.013 22.2212 148.965 23.2806C149.917 24.34 151.219 24.8697 152.871 24.8697Z" fill="#9C9C9C"/>
</g>
<defs>
<clipPath id="clip0_3_18">
<rect width="164" height="36.8657" fill="white" transform="translate(0 0.462646)"/>
</clipPath>
</defs>
</svg>
