<svg width="139" height="50" viewBox="0 0 139 50" fill="none" xmlns="http://www.w3.org/2000/svg">
<g clip-path="url(#clip0_3_20)">
<path d="M24.912 11.4621L20.31 38.9154H13.698L15.378 29.0024H8.256L6.61 38.9154H0L4.639 11.4621H11.214L9.242 23.0534H16.364L18.338 11.4621H24.913H24.912ZM38.473 38.9154L38.693 32.9296H32.593L30.803 38.9154H23.826L33.214 11.4621H45.267L45.414 38.9154H38.474H38.473ZM36.976 18.1348L34.091 27.8198H38.876L39.277 18.1357H36.976V18.1348ZM73.783 11.4621L69.18 38.9154H62.568L57.967 23.8936L55.483 38.9163H48.87L53.509 11.4621H60.303L64.833 25.4943L67.206 11.4621H73.782H73.783ZM89.208 11.4621C92.398 11.4621 94.675 12.3013 96.038 13.9787C97.037 15.2496 97.535 16.8387 97.535 18.745C97.535 19.4319 97.475 20.1556 97.354 20.9181L95.929 29.4215C95.442 32.2931 94.248 34.5943 92.349 36.3231C90.449 38.0519 87.99 38.9154 84.969 38.9154H74.34L78.98 11.4621H89.208ZM86.906 17.411H84.532L81.939 32.9664H85.409C86.553 32.9664 87.442 32.6482 88.075 32.0137C88.733 31.3521 89.183 30.2849 89.425 28.8113L90.486 22.5577C90.578 22.0532 90.627 21.5429 90.632 21.0316C90.632 18.616 89.391 17.4101 86.906 17.4101V17.411ZM117.112 38.9154H98.775L103.416 11.4621H121.753L120.73 17.411H108.968L108.128 22.5587H117.844L116.822 28.5057H107.105L106.375 32.9674H118.137L117.113 38.9154H117.112ZM137.977 38.9154H121.32L125.96 11.4621H132.535L128.919 32.9674H139L137.977 38.9154ZM73.471 43.801H137.014L135.029 49.5075H71.486L73.471 43.801ZM6.95 1H76.45L74.464 6.70642H4.964L6.95 1Z" fill="#9C9C9C"/>
</g>
<defs>
<clipPath id="clip0_3_20">
<rect width="139" height="48.5075" fill="white" transform="translate(0 0.641846)"/>
</clipPath>
</defs>
</svg>
