<svg width="208" height="41" viewBox="0 0 208 41" fill="none" xmlns="http://www.w3.org/2000/svg">
<g clip-path="url(#clip0_3_3)">
<path fill-rule="evenodd" clip-rule="evenodd" d="M13.935 35.9203C13.8021 35.9191 13.6713 35.8884 13.5526 35.8306C13.4338 35.7727 13.3303 35.6892 13.25 35.5866C13.0219 35.2924 12.8678 34.9505 12.8 34.5883C12.6916 34.1272 12.6081 33.6609 12.55 33.1913C12.4809 32.5866 12.4455 31.9787 12.444 31.3703C12.4234 30.0335 12.4281 28.6964 12.458 27.3597C12.476 26.539 12.484 25.8987 12.484 25.4369V10.1551C12.484 9.40224 12.489 8.82985 12.498 8.43694C12.507 8.04403 12.538 7.5997 12.589 7.10395C12.619 6.7353 12.685 6.37052 12.788 6.01448C12.888 5.73992 13.021 5.47798 13.183 5.23254C13.333 4.97545 13.551 4.76298 13.816 4.61746C14.124 4.46806 14.441 4.33612 14.765 4.2197C15.1825 4.06915 15.6152 3.96184 16.056 3.89955C16.6303 3.81821 17.2064 3.74964 17.784 3.69388V2.28231L17.334 1.84575H1.41199L0.98999 2.28231V3.48724C3.66199 3.64149 5.15599 4.37687 5.47199 5.69239C5.65599 6.80321 5.74399 7.92664 5.73599 9.05104V32.4578C5.7802 33.6737 5.72704 34.891 5.57699 36.0988C5.50399 36.287 5.39699 36.4597 5.26099 36.611C5.05736 36.8473 4.84211 37.074 4.61599 37.2901C4.43684 37.4581 4.26534 37.6335 4.10199 37.816V38.7134C17.689 38.7134 26.099 38.7987 29.332 38.9704L30.467 35.2528L29.755 34.7649C24.505 35.4061 19.225 35.7913 13.936 35.9193H13.935V35.9203ZM39.191 25.204C39.1394 25.218 39.0865 25.2265 39.033 25.2293C38.77 25.2293 38.638 25.1361 38.638 24.9479C38.639 24.0981 38.705 23.2492 38.836 22.409C38.984 21.4932 39.231 20.5949 39.574 19.7304C39.9045 18.854 40.3578 18.0258 40.921 17.2692C41.5179 16.4995 42.2931 15.8768 43.1839 15.4514C44.0747 15.026 45.0562 14.8099 46.049 14.8205C46.7654 14.782 47.4799 14.9248 48.1223 15.235C48.7647 15.5453 49.3128 16.0122 49.713 16.5901C50.5441 17.7851 50.977 19.199 50.953 20.6404C50.9495 20.9047 50.8629 21.1616 50.705 21.3769C50.547 21.5922 50.3252 21.7556 50.069 21.8454C48.6253 22.4098 47.1511 22.8978 45.653 23.3074C43.5459 23.9089 41.4458 24.5331 39.353 25.1798C39.2982 25.182 39.2439 25.1901 39.191 25.204ZM54.851 33.2029C51.686 35.0656 48.953 35.9969 46.653 35.9969C45.0948 36.0298 43.5649 35.5906 42.276 34.7406C41.077 33.96 40.1236 32.8732 39.521 31.6002C38.9277 30.3236 38.6264 28.9375 38.638 27.5372C50.133 24.068 55.933 22.3324 56.038 22.3324C56.4945 22.2418 56.9024 21.9954 57.1877 21.638C57.473 21.2806 57.6168 20.8358 57.593 20.3843C57.6243 19.1258 57.3201 17.8807 56.71 16.7696C56.1528 15.7758 55.3282 14.9473 54.324 14.3723C53.3108 13.7954 52.2128 13.3717 51.068 13.116C49.8262 12.8432 48.5562 12.7097 47.283 12.7182C44.999 12.6838 42.7339 13.1255 40.641 14.0134C38.7956 14.7867 37.1651 15.9729 35.883 17.4749C34.6742 18.9272 33.7413 20.5766 33.128 22.346C32.492 24.1666 32.171 26.0767 32.178 27.999C32.178 31.9475 33.278 34.9046 35.474 36.8701C37.46 38.6649 40.264 39.5613 43.884 39.5613C45.9596 39.5406 48.0026 39.0584 49.856 38.1516C52.0879 37.0732 54.2259 35.8208 56.249 34.4069L55.672 33.4096L54.852 33.2029H54.851ZM90.36 6.1697C89.6536 4.37957 88.2663 2.9205 86.484 2.09313C84.2762 1.19201 81.8914 0.772076 79.498 0.862984C77.7514 0.853265 76.0106 1.05996 74.318 1.47806C72.7435 1.867 71.2404 2.48975 69.862 3.32425C68.5118 4.14999 67.4077 5.30381 66.659 6.67127C65.8463 8.16701 65.4379 9.8383 65.472 11.5288C65.4711 12.7389 65.7742 13.931 66.355 15.0019C66.9098 16.0618 67.6606 17.0138 68.57 17.8105C69.548 18.6474 70.5874 19.4142 71.68 20.1049C72.7766 20.8138 73.9123 21.4641 75.082 22.053C76.1816 22.6013 77.2631 23.1831 78.325 23.7973C79.205 24.2804 80.031 24.8519 80.79 25.5019C82.74 27.2627 83.716 28.9372 83.716 30.5272C83.7124 31.3719 83.5304 32.2068 83.1813 32.9805C82.8321 33.7542 82.3232 34.4503 81.686 35.0258C81.0534 35.6575 80.2946 36.1573 79.456 36.4946C78.6174 36.8319 77.7167 36.9996 76.809 36.9875C75.7476 37.017 74.6933 36.8106 73.7269 36.384C72.7604 35.9574 71.9073 35.3219 71.233 34.5262C69.8337 32.9717 69.0696 30.9738 69.085 28.91L68.058 28.551L62.812 34.2681C64.0109 35.9515 65.6364 37.307 67.532 38.204C69.4594 39.1214 71.5802 39.5913 73.727 39.5768C75.6858 39.5672 77.6321 39.2729 79.501 38.7037C81.3805 38.1547 83.1727 37.3565 84.827 36.3316C86.3996 35.3574 87.7351 34.063 88.741 32.5384C89.7269 31.0886 90.2539 29.3905 90.257 27.6537C90.2649 26.7216 90.0954 25.7961 89.757 24.9237C89.4439 24.1135 89.0085 23.353 88.465 22.6671C87.8251 21.9056 87.0848 21.2291 86.263 20.655C85.3651 19.9981 84.4274 19.3939 83.455 18.8457C82.2911 18.2023 81.1135 17.5826 79.923 16.9869C79.0929 16.5965 78.2752 16.1817 77.471 15.7431C76.7105 15.3119 75.9704 14.8477 75.253 14.3519C74.5175 13.8628 73.8453 13.2895 73.251 12.6445C72.7287 12.0425 72.302 11.3683 71.985 10.644C71.6331 9.86418 71.4536 9.02144 71.458 8.17015C71.4418 7.47392 71.5697 6.78161 71.8342 6.13421C72.0988 5.48681 72.4945 4.89748 72.998 4.40112C73.5301 3.88514 74.1669 3.48204 74.868 3.21734C75.5692 2.95264 76.3193 2.83213 77.071 2.86343C78.0021 2.82442 78.9305 2.98572 79.7897 3.33576C80.649 3.68581 81.4178 4.21593 82.041 4.88813C83.2897 6.25925 84.0762 7.96815 84.295 9.78545L85.218 10.0668L90.36 6.1697ZM115.998 16.0022C115.527 15.202 114.845 14.5382 114.021 14.0793C113.206 13.6274 112.326 13.295 111.411 13.0927C110.429 12.8814 109.425 12.7782 108.419 12.7851C106.5 12.759 104.592 13.0762 102.79 13.7213C101.244 14.2659 99.8278 15.1073 98.625 16.1952C97.5072 17.2458 96.5802 18.4718 95.883 19.8216C95.1663 21.1796 94.6387 22.6238 94.314 24.1165C93.9937 25.6262 93.8348 27.1639 93.84 28.7053C93.834 30.015 94.025 31.3189 94.406 32.5743C94.776 33.7899 95.351 34.9375 96.106 35.9717C96.9021 37.0384 97.9699 37.8865 99.205 38.433C100.623 39.0616 102.168 39.3731 103.726 39.343C108.665 39.343 113.305 37.2319 117.646 33.0108L117.119 32.2667L116.46 32.1134C113.244 34.5233 110.273 35.7282 107.549 35.7282C106.529 35.7441 105.521 35.5198 104.61 35.0743C103.784 34.6767 103.066 34.0977 102.511 33.3834C101.96 32.6491 101.512 31.8472 101.179 30.9987C100.833 30.1515 100.581 29.2707 100.428 28.3716C100.288 27.5237 100.218 26.666 100.217 25.8075C100.223 24.716 100.32 23.6275 100.507 22.5516C100.714 21.3535 101.023 20.1748 101.43 19.0261C101.8 17.9036 102.442 16.8835 103.302 16.0516C103.681 15.6794 104.132 15.3844 104.63 15.1841C105.129 14.9839 105.663 14.8823 106.202 14.8855C106.922 14.847 107.64 15.0042 108.273 15.3394C108.906 15.6746 109.431 16.1746 109.787 16.7831C110.602 18.208 111.003 19.8209 110.947 21.4496L111.87 21.8085L116.853 18.9378C116.812 17.9073 116.519 16.9011 115.998 16.0022ZM125.661 23.6295C125.795 22.6225 126.029 21.631 126.36 20.6686C126.663 19.7324 127.093 18.8408 127.638 18.0152C128.162 17.2504 128.861 16.6141 129.682 16.1564C130.567 15.6609 131.574 15.4084 132.595 15.4259C133.703 15.3985 134.796 15.6786 135.745 16.2331C136.627 16.766 137.336 17.5306 137.788 18.4382C138.265 19.3763 138.61 20.3717 138.815 21.3991C139.032 22.5051 139.139 23.6304 139.132 24.7578C139.132 25.7832 139.123 26.6379 139.105 27.3209C139.077 28.1437 139.016 28.9651 138.921 29.7831C138.843 30.5884 138.698 31.3849 138.486 32.1668C138.279 32.8556 138.01 33.525 137.682 34.1672C137.38 34.803 136.944 35.3704 136.403 35.833C135.844 36.2758 135.211 36.6227 134.531 36.8584C133.707 37.1445 132.836 37.2836 131.961 37.2688C130.997 37.2802 130.053 37.0024 129.258 36.4733C128.483 35.9693 127.838 35.2983 127.374 34.5126C126.887 33.667 126.506 32.7677 126.24 31.834C125.96 30.9152 125.757 29.976 125.633 29.0254C125.531 28.2045 125.478 27.3785 125.475 26.5516C125.474 25.5747 125.537 24.5988 125.661 23.6295ZM122.392 36.8846C124.307 38.5766 127.348 39.4225 131.514 39.4225C133.054 39.4322 134.59 39.2605 136.088 38.9093C137.497 38.5694 138.84 38.0112 140.066 37.2562C141.298 36.5021 142.375 35.5326 143.243 34.3972C144.192 33.1096 144.897 31.6685 145.326 30.1411C145.858 28.2889 146.115 26.3728 146.091 24.4502C146.142 22.9023 145.846 21.3621 145.222 19.9365C144.598 18.5108 143.662 17.2339 142.479 16.1943C140.281 14.2811 137.091 13.3236 132.909 13.3236C128.726 13.3236 125.281 14.5799 122.574 17.0926C121.245 18.3112 120.196 19.7884 119.497 21.4275C118.797 23.0666 118.462 24.8306 118.514 26.604C118.514 31.185 119.805 34.6116 122.389 36.8846H122.392ZM163.65 16.5794C165.056 16.5794 166.058 16.853 166.656 17.4002C167.213 18.0599 167.565 18.8612 167.67 19.7091C167.891 20.7084 168.028 21.7251 168.079 22.7466C168.114 23.644 168.132 24.8024 168.132 26.2207C168.131 28.0625 168.118 29.9042 168.093 31.7457C168.084 32.3007 168.088 32.9546 168.105 33.7074C168.11 34.2681 168.145 34.8289 168.211 35.3857C168.264 35.7544 168.334 36.156 168.422 36.5907C168.483 36.9554 168.608 37.3057 168.791 37.6287C168.949 37.8858 169.143 38.1196 169.369 38.3224C170.16 39.0187 171.201 39.3865 172.268 39.3469C173.587 39.3469 175.098 38.6969 176.803 37.3988C178.226 36.2508 179.581 35.0265 180.863 33.7316L180.257 32.8585H179.624C178.593 33.661 177.332 34.1356 176.013 34.2177C175.734 34.2332 175.454 34.1935 175.191 34.101C174.928 34.0084 174.687 33.8649 174.483 33.6793C174.301 33.5397 174.145 33.3711 174.021 33.1806C173.876 32.8452 173.783 32.4908 173.745 32.129C173.644 31.3939 173.6 30.6526 173.613 29.9112C173.613 29.3475 173.644 28.4366 173.705 27.1812C173.754 26.2887 173.785 25.3953 173.798 24.5016V22.963C173.815 21.305 173.811 20.1563 173.785 19.5141C173.732 18.6379 173.631 17.7651 173.481 16.8996C173.415 16.0835 173.134 15.2976 172.664 14.6178C172.2 14.1293 171.645 13.7295 171.029 13.439C170.192 13.0462 169.269 12.8568 168.34 12.887C165.247 12.887 161.661 14.1181 157.584 16.5794L156.951 16.3485C156.917 15.4058 156.601 14.493 156.042 13.7213C155.523 13.0616 154.631 12.7337 153.366 12.7337C152.608 12.743 151.856 12.8684 151.138 13.1053C150.303 13.3769 149.506 13.7475 148.764 14.2074C147.964 14.6954 147.27 15.1484 146.681 15.5666C146.092 15.9847 145.411 16.4931 144.638 17.0916L145.613 18.348C145.792 18.2355 145.973 18.1245 146.154 18.0152C146.461 17.827 146.729 17.6737 146.958 17.5534C147.186 17.4341 147.459 17.2934 147.775 17.1304C148.058 16.981 148.354 16.8559 148.659 16.756C148.892 16.6784 149.136 16.6347 149.383 16.6279C149.688 16.6211 149.989 16.6958 150.253 16.8462C150.521 17.0179 150.723 17.2701 150.831 17.5641C150.963 17.8746 151.077 18.1899 151.173 18.5119C151.281 18.9456 151.343 19.388 151.358 19.8333C151.394 20.4154 151.415 20.8849 151.422 21.2429C151.43 21.6009 151.434 22.1393 151.435 22.8582V23.2948C151.435 24.9693 151.303 30.0965 151.04 38.6765L151.699 39.0354L157.631 37.3687C157.455 36.6343 157.323 34.3186 157.235 30.4225C157.148 26.6113 157.105 22.7994 157.107 18.9873C160.165 17.3807 162.344 16.5775 163.645 16.5775L163.65 16.5794ZM189.223 25.3204C189.172 25.3353 189.119 25.3444 189.065 25.3476C188.802 25.3476 188.67 25.2535 188.669 25.0663C188.67 24.2154 188.736 23.3675 188.868 22.5274C189.016 21.6116 189.263 20.7132 189.605 19.8478C189.936 18.9718 190.388 18.1433 190.95 17.3866C191.547 16.6166 192.322 15.9938 193.213 15.5684C194.104 15.143 195.085 14.927 196.078 14.9379C196.794 14.8993 197.509 15.0421 198.151 15.3523C198.794 15.6625 199.342 16.1296 199.742 16.7075C200.573 17.9024 201.006 19.3164 200.981 20.7578C200.977 21.0219 200.891 21.2785 200.733 21.4937C200.575 21.7089 200.354 21.8725 200.098 21.9628C198.655 22.5269 197.181 23.0149 195.683 23.4248C193.576 24.0262 191.475 24.6503 189.382 25.2972C189.329 25.3 189.276 25.3081 189.224 25.3214H189.223V25.3204ZM204.883 33.3203C201.718 35.184 198.985 36.1153 196.684 36.1143C195.126 36.1469 193.596 35.7082 192.307 34.859C191.108 34.0781 190.155 32.9914 189.553 31.7186C188.959 30.4415 188.658 29.0547 188.669 27.6537C200.164 24.1854 205.964 22.4507 206.07 22.4507C206.526 22.3597 206.934 22.1131 207.22 21.7556C207.505 21.3981 207.649 20.9533 207.625 20.5017C207.656 19.2431 207.352 17.9981 206.742 16.8869C206.185 15.8932 205.36 15.0647 204.356 14.4897C203.343 13.913 202.245 13.4893 201.1 13.2334C199.858 12.9605 198.588 12.827 197.314 12.8356C195.031 12.8014 192.766 13.2431 190.674 14.1307C188.829 14.904 187.198 16.0902 185.916 17.5922C184.707 19.0444 183.774 20.6938 183.161 22.4634C182.525 24.2839 182.204 26.1941 182.212 28.1164C182.212 32.0649 183.31 35.021 185.507 36.9875C187.493 38.7822 190.296 39.6787 193.917 39.6787C195.993 39.6579 198.036 39.1757 199.889 38.269C202.121 37.1904 204.259 35.9384 206.282 34.5252L205.705 33.5269L204.883 33.3203Z" fill="#9C9C9C"/>
</g>
<defs>
<clipPath id="clip0_3_3">
<rect width="208" height="39.7761" fill="white" transform="translate(0 0.85083)"/>
</clipPath>
</defs>
</svg>
