<svg width="148" height="36" viewBox="0 0 148 36" fill="none" xmlns="http://www.w3.org/2000/svg">
<g clip-path="url(#clip0_3_6)">
<path d="M48.624 35.0119V0.552246H39.648L20.88 27.1421L17.712 23.277C23.376 22.4388 26.544 17.5958 26.544 12.4269C26.544 7.49075 23.76 3.34628 20.016 1.76299C18.144 0.971351 15.36 0.552246 11.664 0.552246H0V35.0119H8.688V23.8824H8.784L16.992 35.0119H26.16L29.28 30.0293H39.552V35.0119H48.624ZM8.688 17.8752V8.28239H12.144C15.552 8.28239 17.856 9.95881 17.856 12.9391C17.856 16.1057 15.696 17.8752 12.096 17.8752H8.688ZM39.552 23.0442H33.6L39.456 13.4979H39.552V23.0442ZM85.03 35.0119V0.552246H76.342L76.726 22.3457L62.902 0.552246H55.078V35.0119H63.766L63.526 13.9636L77.158 35.0119H85.03ZM111.228 35.0119V27.2818H100.188V21.3678H110.892V13.6376H100.188V8.28239H111.228V0.552246H91.5V35.0119H111.228ZM147.29 35.0119L134.762 17.7355L146.522 0.552246H137.018L126.986 16.0591H126.89V0.552246H117.818V35.0119H126.89V20.1105H126.986L136.682 35.0119H147.29Z" fill="#9C9C9C"/>
</g>
<defs>
<clipPath id="clip0_3_6">
<rect width="148" height="34.9254" fill="white" transform="translate(0 0.552246)"/>
</clipPath>
</defs>
</svg>
