<svg width="200" height="48" viewBox="0 0 200 48" fill="none" xmlns="http://www.w3.org/2000/svg">
<g clip-path="url(#clip0_3_8)">
<path d="M54.3807 41.2581C51.0607 41.2581 48.5157 40.7071 46.7447 39.605C45.0047 38.4719 44.1357 36.8178 44.1357 34.6437C44.1357 33.5416 44.5157 32.6374 45.2737 31.9331C46.0647 31.1987 47.0767 30.831 48.3097 30.831C49.0367 30.862 49.5897 31.0444 49.9697 31.382C50.3497 31.6886 50.5397 31.9796 50.5397 32.2552C50.5397 32.2852 50.3807 32.3929 50.0647 32.5763C49.7487 32.7606 49.4647 33.0361 49.2107 33.4028C48.9577 33.7715 48.8307 34.276 48.8307 34.9192C48.8307 36.3589 49.2747 37.4765 50.1597 38.273C51.0767 39.0384 52.4837 39.4207 54.3807 39.4207C55.6777 39.4207 56.8157 39.1762 57.7967 38.6863C58.7767 38.1963 59.5197 37.5531 60.0257 36.7566C60.5627 35.9301 60.8317 35.0725 60.8317 34.1838C60.8317 33.0817 60.4997 32.1329 59.8357 31.3364C59.1908 30.5296 58.3843 29.8578 57.4647 29.3612C56.5147 28.8102 55.2187 28.1815 53.5747 27.4772C51.6777 26.6506 50.1447 25.9007 48.9747 25.2264C47.799 24.5484 46.781 23.6413 45.9847 22.5624C45.1637 21.4293 44.7527 20.0361 44.7527 18.382C44.7527 15.718 45.6847 13.7272 47.5507 12.4108C49.4487 11.0933 51.9307 10.4355 54.9977 10.4355C57.4007 10.4355 59.4877 10.9255 61.2587 11.9053C63.0617 12.8852 63.9627 14.3249 63.9627 16.2225C63.9627 17.3255 63.5667 18.2443 62.7767 18.9796C62.0177 19.684 61.0217 20.0361 59.7887 20.0361C59.0607 20.0051 58.5077 19.8363 58.1287 19.5307C57.7487 19.194 57.5587 18.8875 57.5587 18.6119C57.5587 18.5809 57.7647 18.4742 58.1757 18.2899C58.6187 18.1065 58.9977 17.831 59.3137 17.4633C59.6617 17.0956 59.8357 16.5902 59.8357 15.9479C59.8357 14.8148 59.3777 13.9261 58.4607 13.2829C57.5747 12.6397 56.4367 12.3186 55.0447 12.3186C53.1167 12.3186 51.6457 12.7629 50.6347 13.6506C49.6537 14.5082 49.1637 15.5802 49.1637 16.8666C49.1637 17.9377 49.4637 18.8419 50.0647 19.5763C50.6647 20.2806 51.6297 20.9849 52.9577 21.6893C54.1093 22.2767 55.2799 22.8283 56.4677 23.3434C58.4917 24.2311 60.0887 25.0431 61.2587 25.7784C62.4634 26.5165 63.484 27.5049 64.2467 28.6724C65.0687 29.8657 65.4807 31.3519 65.4807 33.1273C65.4807 34.6592 64.9747 36.0523 63.9627 37.3087C62.9827 38.533 61.6377 39.4973 59.9307 40.2016C58.2547 40.906 56.4047 41.2591 54.3807 41.2591V41.2581ZM78.3937 40.8914C76.2437 40.8914 74.5357 40.2628 73.2707 39.0074C72.0057 37.752 71.3737 36.0979 71.3737 34.0461V25.5475C71.3737 24.752 71.3417 24.1699 71.2787 23.8022C71.2477 23.4355 71.0577 23.1134 70.7087 22.8379C70.3617 22.5624 69.7767 22.4246 68.9547 22.4246C68.5747 22.4246 68.2907 22.379 68.1007 22.2869C67.9107 22.1646 67.8167 21.9037 67.8167 21.5059C67.8167 21.3216 67.8797 21.1537 68.0067 21.0014C68.1327 20.8171 68.3227 20.7104 68.5757 20.6793C70.5677 20.4028 72.2757 20.0051 73.6977 19.4841C74.1407 19.3318 74.5037 19.2396 74.7887 19.2086H74.9307C75.4367 19.2086 75.6907 19.4996 75.6907 20.0817V34.0005C75.6907 35.4091 76.1487 36.4966 77.0657 37.2621C77.9546 37.9872 79.0825 38.3783 80.2437 38.3642C81.7297 38.3642 82.9937 38.012 84.0377 37.3077C85.0817 36.6034 85.7777 35.899 86.1247 35.1947V25.5485C86.1247 24.752 86.0937 24.1709 86.0307 23.8022C85.9987 23.4355 85.8087 23.1134 85.4607 22.8379C85.1127 22.5624 84.5277 22.4246 83.7057 22.4246C83.3257 22.4246 83.0417 22.379 82.8527 22.2869C82.6627 22.1646 82.5677 21.9037 82.5677 21.5059C82.5677 21.3216 82.6307 21.1537 82.7577 21.0014C82.8837 20.8171 83.0737 20.7104 83.3267 20.6793C85.3187 20.4028 87.0267 20.0051 88.4497 19.4841C88.8917 19.3318 89.2557 19.2396 89.5397 19.2086H89.6827C90.1887 19.2086 90.4417 19.4996 90.4417 20.0817V35.9766C90.4417 37.784 91.6907 38.6872 94.1887 38.6872C94.7257 38.6872 94.9947 38.9783 94.9947 39.5604C94.9947 39.9882 94.7257 40.2492 94.1887 40.3404L86.5517 40.8458C86.3307 40.8458 86.2037 40.7692 86.1717 40.6169C86.1417 40.4937 86.1247 40.2647 86.1247 39.9281V37.3543H86.0307C85.3048 38.0158 84.5612 38.6589 83.8007 39.2829C83.2317 39.7117 82.4887 40.0794 81.5707 40.386C80.6857 40.7226 79.6267 40.8905 78.3937 40.8905V40.8914ZM97.5897 40.4781C97.4792 40.4777 97.3703 40.4525 97.2714 40.4045C97.1726 40.3566 97.0864 40.2871 97.0197 40.2016C96.8937 40.0183 96.8297 39.8039 96.8297 39.5594C96.8617 39.1616 96.9567 38.9308 97.1147 38.8706C97.2737 38.7784 97.5577 38.7319 97.9687 38.7319C98.7907 38.7319 99.3757 38.5941 99.7237 38.3186C100.072 38.0431 100.262 37.721 100.293 37.3543C100.357 36.9856 100.388 36.4045 100.388 35.608V25.0887C100.388 24.2931 100.357 23.7111 100.293 23.3424C100.262 22.9757 100.072 22.6536 99.7237 22.379C99.3757 22.1035 98.7907 21.9648 97.9687 21.9648C97.5887 21.9648 97.3047 21.9192 97.1157 21.827C96.9257 21.7048 96.8307 21.4448 96.8307 21.0461C96.8307 20.8627 96.8937 20.6939 97.0207 20.5416C97.1467 20.3572 97.3367 20.2505 97.5897 20.2195C99.6447 19.9129 101.337 19.5152 102.665 19.0252C103.203 18.8719 103.566 18.7798 103.756 18.7497H103.898C104.404 18.7497 104.657 19.0408 104.657 19.6228V22.4702H104.799C105.906 21.3982 107.029 20.5561 108.167 19.944C109.306 19.3008 110.333 18.9796 111.25 18.9796C112.294 18.9796 113.116 19.3619 113.717 20.1273C114.349 20.8627 114.665 21.7203 114.665 22.7002C114.665 23.5578 114.397 24.3232 113.859 24.9965C113.321 25.6708 112.578 26.0074 111.63 26.0074C111.217 26.0144 110.809 25.9196 110.444 25.7319C110.128 25.5475 109.954 25.3952 109.922 25.273C109.954 25.2119 110.112 25.0275 110.396 24.721C110.681 24.3843 110.823 24.0021 110.823 23.5733C110.823 23.0213 110.665 22.5779 110.349 22.2413C110.064 21.9037 109.669 21.7358 109.163 21.7358C108.626 21.7358 107.946 21.9958 107.124 22.5168C106.301 23.0067 105.495 23.6344 104.705 24.3999V35.608C104.705 36.4045 104.736 36.9856 104.799 37.3543C104.863 37.721 105.068 38.0431 105.416 38.3186C105.764 38.5941 106.349 38.7319 107.171 38.7319H107.456C107.709 38.7319 107.898 38.7784 108.025 38.8696C108.151 38.9618 108.23 39.1917 108.262 39.5584C108.262 39.8039 108.199 40.0183 108.072 40.2016C107.946 40.386 107.756 40.4781 107.503 40.4781C105.844 40.3907 104.184 40.3444 102.523 40.3394C101.1 40.3394 99.4557 40.386 97.5897 40.4772V40.4781ZM171.257 40.8914C169.107 40.8914 167.194 40.4005 165.518 39.4207C163.842 38.4108 162.53 37.0933 161.581 35.4702C160.676 33.8643 160.204 32.0633 160.206 30.2334C160.206 27.937 160.759 25.9463 161.866 24.2621C162.973 22.5469 164.38 21.2449 166.087 20.3572C167.795 19.4385 169.518 18.9796 171.257 18.9796C173.408 18.9796 175.321 19.4841 176.997 20.495C178.641 21.4426 179.986 22.8088 180.886 24.4455C181.822 26.024 182.313 27.8144 182.309 29.6358C182.309 31.9331 181.74 33.9393 180.602 35.6546C179.495 37.3387 178.088 38.6397 176.38 39.5584C174.673 40.4471 172.965 40.8914 171.257 40.8914ZM171.257 39.1917C173.408 39.1917 174.973 38.3031 175.953 36.5267C176.965 34.7514 177.471 32.454 177.471 29.6367C177.471 27.0028 176.949 24.8597 175.906 23.2046C174.894 21.5214 173.344 20.6793 171.257 20.6793C169.076 20.6793 167.495 21.5525 166.514 23.2978C165.534 25.0431 165.044 27.3239 165.044 30.1422C165.044 32.7752 165.55 34.9502 166.562 36.6645C167.574 38.3496 169.139 39.1917 171.257 39.1917ZM194.261 41.1204C192.711 41.1204 191.383 40.5693 190.276 39.4672C189.17 38.3642 188.616 36.7877 188.616 34.7358V21.2304L185.865 21.3225C185.773 21.3233 185.682 21.3028 185.599 21.2629C185.517 21.2229 185.445 21.1645 185.391 21.0926C185.266 20.9167 185.2 20.7083 185.201 20.495C185.201 20.2195 185.249 19.9905 185.343 19.8062C185.47 19.5918 185.644 19.4696 185.865 19.4385C186.972 19.2251 187.826 18.8875 188.427 18.4286C189.059 17.9377 189.518 17.4177 189.802 16.8666C190.087 16.2846 190.435 15.4114 190.846 14.2472C191.004 13.8495 191.352 13.6506 191.889 13.6506C192.11 13.6506 192.332 13.7117 192.553 13.8349C192.774 13.9261 192.885 14.0794 192.885 14.2938L192.553 19.5307L198.103 19.2086H198.198C198.609 19.2086 198.814 19.4996 198.814 20.0817C198.814 20.4184 198.751 20.7405 198.624 21.0461C198.53 21.3225 198.403 21.4603 198.245 21.4603L192.933 21.3225V35.2869C192.933 36.2978 193.138 37.1399 193.549 37.8131C193.992 38.4874 194.703 38.824 195.684 38.824C196.664 38.824 197.534 38.6552 198.292 38.3186C198.704 38.1653 198.956 38.0887 199.051 38.0887C199.273 38.0887 199.447 38.1808 199.573 38.3642C199.7 38.5175 199.826 38.7328 199.953 39.0074C199.986 39.0796 200.002 39.1582 200 39.2373C200 39.3596 199.905 39.4973 199.715 39.6506C198.798 40.2327 197.929 40.6159 197.107 40.7993C196.316 41.0127 195.367 41.1204 194.261 41.1204ZM117.597 40.2016C117.723 40.386 117.913 40.4772 118.166 40.4772C119.809 40.3897 121.453 40.3437 123.099 40.3394C125.218 40.3394 127.194 40.386 129.028 40.4772C129.132 40.4795 129.235 40.4552 129.327 40.4069C129.418 40.3586 129.495 40.2878 129.55 40.2016C129.676 40.0173 129.739 39.8039 129.739 39.5584C129.708 39.1917 129.629 38.9618 129.502 38.8696C129.407 38.7784 129.218 38.7319 128.933 38.7319H128.648C127.605 38.7319 126.862 38.6552 126.419 38.5019C125.976 38.3496 125.676 38.0731 125.518 37.6754C125.36 37.2466 125.281 36.5578 125.281 35.609V21.3206H130.309C130.419 21.3201 130.528 21.295 130.626 21.2472C130.725 21.1994 130.811 21.1303 130.878 21.0451C131.036 20.8617 131.115 20.6473 131.115 20.4019C131.083 20.0352 130.988 19.8052 130.83 19.7131C130.704 19.5908 130.498 19.5287 130.214 19.5287H125.281V16.7735C125.281 15.3037 125.344 14.0173 125.47 12.9143C125.588 11.8069 125.961 10.7393 126.561 9.79038C127.162 8.84158 128.095 8.36717 129.36 8.36717C129.505 8.36717 129.646 8.37493 129.782 8.39143C129.764 7.87679 129.799 7.36171 129.886 6.85374C129.821 6.85201 129.756 6.85104 129.692 6.85083C126.909 6.91195 124.743 7.9374 123.194 9.92911C121.676 11.8888 120.917 14.4461 120.917 17.6001V19.5297H118.071C117.66 19.5297 117.375 19.5753 117.217 19.6675C117.059 19.7286 116.964 19.974 116.933 20.4019C116.933 20.6473 116.996 20.8617 117.122 21.0451C117.281 21.2294 117.486 21.3216 117.739 21.3216H120.917V35.608C120.917 36.4355 120.885 37.0322 120.822 37.3999C120.791 37.7365 120.601 38.0431 120.253 38.3186C119.905 38.5941 119.32 38.7319 118.498 38.7319C118.087 38.7319 117.802 38.7784 117.644 38.8696C117.518 38.9308 117.439 39.1607 117.407 39.5584C117.407 39.8039 117.47 40.0183 117.597 40.2016Z" fill="#9C9C9C"/>
<path fill-rule="evenodd" clip-rule="evenodd" d="M142.952 9.63081C142.951 10.3016 142.814 10.9657 142.549 11.5851C142.284 12.2046 141.895 12.7673 141.406 13.2412C140.917 13.715 140.336 14.0907 139.697 14.3468C139.058 14.6029 138.373 14.7344 137.682 14.7338C136.285 14.7348 134.946 14.1978 133.958 13.2409C132.969 12.2839 132.413 10.9854 132.412 9.63081C132.412 8.95991 132.549 8.29568 132.814 7.67605C133.079 7.05641 133.468 6.49351 133.957 6.01947C134.446 5.54544 135.027 5.16955 135.666 4.91328C136.305 4.65701 136.99 4.52537 137.682 4.52588C138.373 4.52525 139.058 4.6568 139.697 4.91302C140.337 5.16925 140.917 5.54513 141.407 6.01919C141.896 6.49325 142.285 7.05621 142.55 7.6759C142.815 8.29559 142.951 8.95987 142.952 9.63081ZM137.682 12.1823C138.027 12.1827 138.37 12.117 138.689 11.989C139.009 11.8609 139.299 11.6731 139.544 11.4361C139.789 11.1992 139.983 10.9178 140.116 10.608C140.248 10.2983 140.316 9.96621 140.317 9.63081C140.317 9.29532 140.248 8.96315 140.116 8.65328C139.983 8.3434 139.789 8.0619 139.544 7.82486C139.3 7.58781 139.009 7.39988 138.69 7.27179C138.37 7.1437 138.028 7.07796 137.682 7.07835C136.984 7.07809 136.314 7.34667 135.82 7.82508C135.326 8.3035 135.048 8.95262 135.047 9.62984C135.048 10.3072 135.326 10.9566 135.82 11.4352C136.314 11.9138 136.984 12.1826 137.682 12.1823ZM135.372 16.9545V41.5672C135.372 41.8417 135.452 42.0561 135.61 42.2094C135.768 42.3937 135.989 42.4849 136.274 42.4849C136.558 42.4849 136.795 42.3627 136.985 42.1182C137.175 41.9038 137.349 41.5817 137.507 41.1529C137.665 40.7241 137.807 40.3875 137.934 40.142H138.171C140.226 41.6428 142.661 42.3927 145.475 42.3927C147.373 42.3927 149.159 41.9028 150.835 40.923C152.511 39.9431 153.839 38.6111 154.82 36.926C155.831 35.2117 156.337 33.3286 156.337 31.2768C156.337 29.1939 155.895 27.3419 155.009 25.7178C154.156 24.0647 152.97 22.7783 151.452 21.8595C149.934 20.9408 148.242 20.4819 146.377 20.4819C145.238 20.4819 144.084 20.7109 142.914 21.1707C141.776 21.5995 140.748 22.2573 139.831 23.146H139.689V17.0379C138.269 17.3954 136.775 17.3666 135.372 16.9545ZM149.697 38.3045C148.527 39.9897 146.977 40.8318 145.049 40.8318C144.037 40.8318 143.136 40.6174 142.345 40.1886C141.586 39.7598 140.969 39.2543 140.495 38.6722C140.052 38.0601 139.784 37.508 139.689 37.0191V24.8922C141.048 23.4826 142.724 22.7783 144.717 22.7783C146.962 22.7783 148.653 23.6359 149.792 25.3511C150.93 27.0353 151.499 29.0716 151.499 31.4601C151.499 34.3085 150.899 36.5903 149.697 38.3045ZM12.6997 0.416331C13.0352 0.184439 13.4368 0.0598145 13.8487 0.0598145C14.2606 0.0598145 14.6623 0.184439 14.9977 0.416331C23.5577 6.33812 27.4377 13.4367 27.6827 23.6223C27.7957 28.4857 27.3127 32.9386 25.8417 36.7853C24.3317 40.6348 21.6487 44.1904 17.6987 47.194C17.4528 47.3794 17.1652 47.5059 16.8594 47.5632C16.5536 47.6205 16.2382 47.6071 15.9387 47.5239C14.7287 47.1872 14.5227 45.798 13.8487 44.9326C13.1747 45.798 12.9707 47.1863 11.7587 47.5229C11.4594 47.6059 11.1442 47.6193 10.8386 47.562C10.5329 47.5047 10.2456 47.3783 9.99973 47.193C6.04973 44.1904 3.36573 40.6348 1.85673 36.7853C0.386726 32.9386 -0.0972739 28.4857 0.0157261 23.6223C0.259726 13.4367 4.13973 6.33715 12.6997 0.416331ZM17.1257 42.807C19.5977 40.6048 21.0877 38.2036 22.1397 35.4416C23.4647 32.0655 23.8467 28.3343 23.7317 23.7116C23.5417 15.7689 21.6217 10.601 15.8087 5.8026V19.8387C18.0817 20.4053 19.1017 22.5648 19.1017 24.9417C19.1017 27.3205 18.0817 29.4801 15.8087 30.0466V41.5303C15.8087 41.5303 16.8647 42.4742 17.1257 42.807ZM10.5377 42.807C8.06573 40.6048 6.61073 38.2036 5.55773 35.4416C4.23373 32.0655 3.85173 28.3343 3.96773 23.7116C4.15773 15.7854 6.06673 10.5951 11.8557 5.8026V19.8387C9.58273 20.4053 8.56173 22.5648 8.56173 24.9417C8.56173 27.3205 9.58173 29.4801 11.8557 30.0466V41.5303C11.8557 41.5303 10.7897 42.4859 10.5377 42.807ZM13.8317 22.3902C13.1336 22.3897 12.4638 22.6582 11.9697 23.1367C11.4756 23.6151 11.1975 24.2644 11.1967 24.9417C11.1967 26.3523 12.3767 27.4942 13.8317 27.4942C14.5299 27.4947 15.1996 27.2262 15.6938 26.7477C16.1879 26.2692 16.4659 25.62 16.4667 24.9427C16.4667 23.533 15.2867 22.3912 13.8317 22.3912V22.3902Z" fill="#9C9C9C"/>
</g>
<defs>
<clipPath id="clip0_3_8">
<rect width="200" height="47.5373" fill="white"/>
</clipPath>
</defs>
</svg>
