<svg width="196" height="33" viewBox="0 0 196 33" fill="none" xmlns="http://www.w3.org/2000/svg">
<g clip-path="url(#clip0_3_11)">
<path d="M21.644 33.2719C20.4706 33.3025 19.3082 33.0459 18.264 32.5258C17.2254 32.0095 16.3395 31.2449 15.69 30.3042C13.6449 32.1266 10.9953 33.1793 8.22 33.2719C3.233 33.2719 0.53 29.9113 1.443 25.0935C2.137 21.471 5.242 17.8407 6.11 14.9264C4.43 13.9485 1.936 13.2674 0.767 15.2659L0 14.8206C0.612 12.63 2.091 11.1729 4.228 11.1729C6.365 11.1729 7.945 12.3855 9.982 11.2689H11.607C10.74 15.6326 8.548 19.1232 7.379 25.2332C6.667 28.978 7.991 30.6797 10.229 30.6797C11.8822 30.4824 13.403 29.7024 14.502 28.4881C13.6095 26.3573 13.1596 24.0765 13.178 21.7766C13.178 16.4699 15.726 10.876 20 10.876C22.192 10.876 23.817 12.3332 23.817 15.7898C23.817 19.2455 21.626 24.5958 18.831 27.9555C18.982 28.7558 19.421 29.4805 20.071 30.0054C20.721 30.5293 21.542 30.8203 22.393 30.8281C26.466 30.8281 29.315 24.9878 29.315 19.586C29.315 14.1842 26.868 14.4277 27.078 12.6038C27.0969 12.3759 27.162 12.1539 27.2696 11.9504C27.3772 11.747 27.5252 11.5661 27.705 11.4183C28.069 11.1176 28.543 10.9672 29.023 10.9982C30.293 10.9982 31.963 12.534 31.963 18.7662C31.963 26.7079 27.543 33.2719 21.643 33.2719H21.644ZM20.722 13.6167C19.452 13.6167 18.228 18.0939 18.073 22.7196C18.0137 23.7087 18.0321 24.7008 18.128 25.6873C20.0432 22.6615 21.2119 19.2474 21.543 15.7112C21.534 14.1396 21.233 13.6157 20.721 13.6157L20.722 13.6167ZM40.329 33.0711C39.7964 33.1237 39.2584 33.0638 38.752 32.8955C38.2475 32.7282 37.7868 32.4561 37.402 32.098C37.0197 31.742 36.7233 31.3083 36.534 30.8281C36.3451 30.3499 36.2686 29.8368 36.31 29.3263C36.31 27.1881 39.215 16.531 39.215 14.777C39.215 13.9485 39.014 13.4595 38.247 13.4595C37.3912 13.5927 36.5942 13.9657 35.954 14.5325V13.0229C37.2835 11.8529 38.9997 11.1814 40.794 11.1292C41.3299 11.083 41.8698 11.1491 42.377 11.3232C42.883 11.4979 43.343 11.7744 43.726 12.1362C44.108 12.4971 44.404 12.9337 44.592 13.4168C44.779 13.898 44.855 14.4132 44.812 14.9254C44.812 17.0636 41.909 27.677 41.909 29.4223C41.909 30.2518 42.109 30.7408 42.877 30.7408C43.7212 30.6046 44.5126 30.2519 45.169 29.7192V31.1764C43.8445 32.3544 42.1253 33.0274 40.329 33.0711ZM43.89 2.2698C44.288 2.25816 44.684 2.32801 45.051 2.47741C45.417 2.62682 45.746 2.84995 46.012 3.13227C46.279 3.41243 46.4787 3.74656 46.5967 4.11059C46.7146 4.47462 46.7478 4.85949 46.694 5.23749C46.5958 6.04456 46.1972 6.78906 45.573 7.33107C44.9435 7.87804 44.1329 8.18814 43.288 8.20518C42.8905 8.21739 42.4949 8.14659 42.128 7.99756C41.7623 7.84935 41.4341 7.62593 41.166 7.34271C40.899 7.06255 40.6993 6.72842 40.5813 6.36439C40.4634 6.00036 40.4302 5.61549 40.484 5.23749C40.5823 4.43044 40.9809 3.68598 41.605 3.14391C42.2347 2.59736 43.0453 2.28763 43.89 2.27077V2.2698ZM55.196 28.4978C54.941 29.8153 55.096 30.732 56.064 30.732C56.9112 30.6055 57.7051 30.2517 58.356 29.7105L58.447 31.1764C57.1176 32.3468 55.4014 33.0186 53.607 33.0711C50.447 33.0711 49.224 30.8805 49.69 28.1573L52.795 11.2689C53.827 5.6304 53.47 4.88824 50.31 4.88824L50.511 3.52712L60.036 2.32219L55.196 28.4968V28.4978ZM81.982 28.4532C81.726 29.7716 81.826 30.7408 82.849 30.7408C83.6981 30.5868 84.4896 30.2161 85.142 29.6668V31.1764C83.8212 32.3599 82.0996 33.0338 80.302 33.0711C79.3927 33.135 78.4912 32.8703 77.771 32.3279C77.0565 31.7909 76.5772 31.012 76.429 30.147C75.6625 31.1157 74.6786 31.9024 73.552 32.4473C72.4197 32.9958 71.1745 33.2896 69.909 33.3068C63.854 33.3068 61.306 28.2009 62.475 22.0647C63.644 15.9295 69.095 10.9197 75.26 10.9197C76.7175 10.89 78.1591 11.217 79.452 11.8704L79.607 11.0943C80.813 5.08906 80.256 4.88824 77.096 4.88824L77.251 3.52712L86.821 2.32219L81.981 28.4541L81.982 28.4532ZM75.415 13.119C71.899 13.119 69.562 17.1073 68.639 22.0211C67.671 27.1794 68.283 30.7495 71.589 30.7495C73.826 30.7495 76.374 28.1301 77.141 24.1331L79.023 14.0096C77.9348 13.3795 76.6813 13.0701 75.415 13.119ZM98.073 33.3146C90.995 33.3146 89.059 28.4444 89.927 23.7751L92.237 11.2689C93.306 5.62264 92.95 4.84458 89.79 4.84458L89.99 3.48346L99.543 2.32219L97.607 12.9269C99.1008 11.6889 100.986 10.9837 102.95 10.9284C109.114 10.9284 112.009 15.9382 110.895 22.0735C109.781 28.2097 104.11 33.3155 98.073 33.3155V33.3146ZM101.379 13.2412C100.352 13.2607 99.3576 13.5911 98.534 14.1861C97.7166 14.7766 97.1139 15.6039 96.813 16.5485L95.388 24.4038C94.52 29.0731 96.256 30.9755 98.448 30.9755C101.653 30.9755 103.644 27.5723 104.712 21.9774C105.662 16.9676 104.795 13.2674 101.37 13.2674L101.379 13.2412ZM120.548 24.9014C120.548 28.6462 122.429 30.6447 126.027 30.6447C127.854 30.6447 130.511 29.432 132.192 27.8255L132.904 29.3787C131.693 30.604 130.242 31.5829 128.637 32.2581C127.025 32.936 125.291 33.2981 123.534 33.3233C118.192 33.3233 114.575 29.5271 114.575 24.3688C114.575 16.7318 121.196 10.9371 127.562 10.9371C131.434 10.9371 133.616 12.9793 133.616 15.362C133.571 19.0621 129.9 23.2173 120.548 24.9014ZM127.114 13.1714C124.21 13.1714 121.416 17.212 120.648 22.999C126.502 21.6369 128.995 17.8407 129.05 15.4056C129.041 14.0445 128.374 13.1714 127.105 13.1714H127.114ZM154.393 33.0711C153.484 33.1349 152.582 32.8702 151.862 32.3279C151.148 31.7908 150.669 31.0119 150.521 30.147C149.783 31.1153 148.822 31.9035 147.715 32.4492C146.603 32.9983 145.376 33.2915 144.128 33.3058C138.174 33.3058 135.626 28.2009 136.822 22.0647C138.018 15.9295 143.379 10.9274 149.562 10.9274C150.872 10.921 152.17 11.1708 153.379 11.6618H159.187L156.073 28.4532C155.817 29.7716 155.918 30.7408 156.941 30.7408C157.79 30.5866 158.581 30.2159 159.233 29.6668V31.1764C157.912 32.3599 156.191 33.0338 154.393 33.0711ZM149.708 13.119C146.292 13.119 143.9 17.1073 142.986 22.0211C142.018 27.1794 142.685 30.7495 145.726 30.7495C148.064 30.7495 150.566 28.0263 151.279 24.1331L153.16 14.0096C152.133 13.3795 150.931 13.0688 149.717 13.119H149.708ZM177.005 16.6707C175.626 16.6707 175.269 15.6501 174.868 14.5761C174.731 14.0333 174.402 13.5541 173.939 13.2218C173.472 12.8867 172.9 12.7179 172.32 12.7435C171.566 12.7048 170.824 12.9377 170.237 13.3974C169.654 13.8525 169.27 14.5042 169.16 15.2223C169.005 16.5407 170.027 17.6573 171.963 19.2629L174.557 21.3051C175.521 22.0014 176.269 22.941 176.721 24.0215C177.17 25.0984 177.303 26.2723 177.105 27.4151C176.447 31.0629 173.288 33.3058 169.059 33.3058C163.963 33.3058 160.712 30.4342 161.068 28.4881C161.151 27.9768 161.421 27.5082 161.831 27.1706C162.241 26.8311 162.764 26.6429 163.306 26.638C164.63 26.638 165.132 27.6072 165.543 28.8723C165.807 29.5999 166.314 30.2227 166.986 30.6457C167.66 31.069 168.459 31.2676 169.26 31.2113C170.052 31.2477 170.829 30.9997 171.444 30.5147C172.053 30.0339 172.454 29.3481 172.566 28.5938C172.767 26.8476 171.653 25.7746 169.562 23.9672L167.014 21.829C166.118 21.1758 165.418 20.3027 164.986 19.2998C164.556 18.3019 164.411 17.2101 164.566 16.1391C165.023 13.8 167.306 10.9022 172.557 10.9022C176.63 10.9022 179.178 13.0928 178.95 14.8468C178.924 15.3306 178.71 15.7868 178.35 16.1226C177.99 16.4602 177.509 16.6561 177.005 16.6707ZM195.644 13.6167H190.703L188.311 26.5507C187.799 29.2303 188.21 30.4439 189.735 30.4439C190.548 30.4439 191.826 30.0073 193.653 28.2097L193.753 30.1034C192.923 31.0422 191.895 31.7966 190.738 32.3153C189.576 32.837 188.312 33.1122 187.032 33.1225C183.571 33.1225 181.836 30.7844 182.658 26.4547L185.05 13.6167H181.187L181.489 11.6182H185.388L186.411 5.83122H192.11L191.041 11.6172H195.982L195.644 13.6157V13.6167Z" fill="#9C9C9C"/>
</g>
<defs>
<clipPath id="clip0_3_11">
<rect width="196" height="32.9851" fill="white"/>
</clipPath>
</defs>
</svg>
