<svg width="148" height="41" viewBox="0 0 148 41" fill="none" xmlns="http://www.w3.org/2000/svg">
<path d="M5.58562 16.3921C6.30377 15.0487 7.2879 13.9572 8.53801 13.1176C9.81473 12.2779 11.2643 11.8581 12.8868 11.8581C14.7753 11.8581 16.4776 12.4459 17.9937 13.6213C19.5364 14.7968 20.7466 16.4761 21.6243 18.6591C22.5287 20.8086 22.9808 23.3107 22.9808 26.1654C22.9808 29.0202 22.5287 31.5558 21.6243 33.7725C20.7466 35.9555 19.5364 37.6516 17.9937 38.8606C16.4776 40.0697 14.7753 40.6742 12.8868 40.6742C11.2377 40.6742 9.78813 40.2712 8.53801 39.4652C7.3145 38.6255 6.33037 37.5508 5.58562 36.241V40.2208H0V2.94123H5.58562V16.3921ZM17.2755 26.1654C17.2755 24.4862 16.9962 23.042 16.4377 21.8329C15.9057 20.5903 15.1876 19.6499 14.2832 19.0118C13.4104 18.3752 12.4186 18.0448 11.4106 18.0546C10.3999 18.0546 9.44235 18.3904 8.53801 19.0621C7.66027 19.7003 6.94212 20.6406 6.38356 21.8833C5.8516 23.126 5.58562 24.5869 5.58562 26.2662C5.58562 27.9454 5.8516 29.4064 6.38356 30.649C6.94212 31.8917 7.66027 32.8489 8.53801 33.5206C9.44235 34.1587 10.3999 34.4778 11.4106 34.4778C12.4479 34.4778 13.4055 34.1419 14.2832 33.4702C15.1876 32.7985 15.9057 31.8413 16.4377 30.5987C16.9962 29.356 17.2755 27.8783 17.2755 26.1654ZM29.872 8.98657C28.8878 8.98657 28.0633 8.60034 27.3983 7.82788C26.76 7.02184 26.4408 6.03108 26.4408 4.85559C26.4408 3.68011 26.76 2.70614 27.3983 1.93368C28.0633 1.12763 28.8878 0.724609 29.872 0.724609C30.8561 0.724609 31.6673 1.12763 32.3057 1.93368C32.9707 2.70614 33.3031 3.68011 33.3031 4.85559C33.3031 6.03108 32.9707 7.02184 32.3057 7.82788C31.6673 8.60034 30.8561 8.98657 29.872 8.98657ZM32.6249 12.3115V40.2208H27.0393V12.3115H32.6249ZM51.2303 40.2208L43.7296 28.3317V40.2208H38.144V2.94123H43.7296V24.1503L51.1505 12.3115H58.4118L48.6769 26.3166L58.4916 40.2208H51.2303ZM58.8983 26.2662C58.8983 23.3778 59.3638 20.859 60.2947 18.7095C61.2257 16.5265 62.5157 14.8472 64.1648 13.6717C65.8139 12.4626 67.7023 11.8581 69.8302 11.8581C72.5698 11.8581 74.8306 12.7313 76.6127 14.4778C78.4214 16.1906 79.6316 18.6087 80.2434 21.7322H74.22C73.9008 20.5231 73.3556 19.5827 72.5842 18.911C71.8395 18.2057 70.9085 17.8531 69.7914 17.8531C68.1955 17.8531 66.9321 18.5919 66.0012 20.0697C65.0702 21.5139 64.6048 23.5794 64.6048 26.2662C64.6048 28.9194 65.0702 30.9849 66.0012 32.4626C66.9321 33.9068 68.1955 34.6289 69.7914 34.6289C72.0522 34.6289 73.5284 33.3527 74.22 30.8002H80.2445C79.6327 33.8228 78.4225 36.2242 76.6138 38.0042C74.8051 39.7842 72.5443 40.6742 69.8313 40.6742C67.7034 40.6742 65.815 40.0865 64.1659 38.911C62.5299 37.719 61.1897 35.9744 60.2958 33.8732C59.3649 31.6902 58.8983 29.1545 58.8983 26.2662ZM88.8135 16.644C89.4984 15.2075 90.4589 14.012 91.6063 13.1679C92.7766 12.3283 94.1066 11.9085 95.5961 11.9085V19.314H94.1199C92.3644 19.314 91.0345 19.8346 90.1301 20.8757C89.2524 21.9169 88.8135 23.7305 88.8135 26.3166V40.2208H83.2279V12.3115H88.8135V16.644ZM112.723 36.241C112.111 37.5172 111.114 38.5919 109.731 39.4652C108.348 40.3048 106.858 40.7246 105.262 40.7246C103.879 40.7246 102.629 40.372 101.512 39.6667C100.395 38.9614 99.5171 37.9874 98.8787 36.7448C98.2404 35.5021 97.9212 34.0747 97.9212 32.4626C97.9212 29.8766 98.6792 27.7607 100.195 26.115C101.738 24.4694 104.039 23.6465 107.098 23.6465H112.723C112.67 21.8665 112.258 20.4559 111.486 19.4148C110.742 18.3401 109.704 17.8027 108.374 17.8027C107.204 17.8027 106.233 18.2057 105.462 19.0118C104.69 19.7842 104.198 20.8757 103.986 22.2863H98.3999C98.6659 20.2712 99.2378 18.4744 100.116 16.8959C101.012 15.2922 102.221 14.008 103.626 13.1679C105.089 12.2611 106.725 11.8077 108.534 11.8077C110.396 11.8077 112.071 12.2947 113.561 13.2687C115.04 14.1991 116.274 15.6517 117.112 17.4501C117.963 19.2637 118.388 21.3963 118.388 23.848V40.2208H112.723V36.241ZM106.898 35.0319C107.829 35.0319 108.733 34.78 109.611 34.2762C110.515 33.7725 111.26 33.0168 111.845 32.0092C112.43 31.0017 112.723 29.8094 112.723 28.4324V28.2309H107.417C106.14 28.2309 105.182 28.55 104.544 29.1881C103.932 29.8262 103.626 30.6658 103.626 31.707C103.626 32.7145 103.906 33.5206 104.464 34.1251C105.049 34.7296 105.861 35.0319 106.898 35.0319ZM130.168 18.105V40.2208H124.503V18.105H121.989V12.3115H124.503V10.9009C124.503 7.47524 125.274 4.95635 126.817 3.34426C128.359 1.73217 130.687 0.976499 133.799 1.07725V7.02184C132.442 6.98825 131.498 7.27373 130.966 7.87826C130.434 8.4828 130.168 9.57432 130.168 11.1528V12.3115H137.427V5.40975H143.053V12.3115H148V18.105H143.053V31.6062C143.053 32.5466 143.226 33.2351 143.571 33.6717C143.944 34.0747 144.556 34.2762 145.407 34.2762H148V40.2208H144.489C139.781 40.2208 137.427 37.3325 137.427 31.5558V18.105H130.168Z" fill="white"/>
</svg>
