<svg width="134" height="41" viewBox="0 0 134 41" fill="none" xmlns="http://www.w3.org/2000/svg">
<path d="M5.04 15.8757C5.688 14.5231 6.576 13.4241 7.704 12.5787C8.856 11.7333 10.164 11.3106 11.628 11.3106C13.332 11.3106 14.868 11.9024 16.236 13.0859C17.628 14.2695 18.72 15.9603 19.512 18.1583C20.328 20.3226 20.736 22.8418 20.736 25.7162C20.736 28.5906 20.328 31.1437 19.512 33.3755C18.72 35.5736 17.628 37.2813 16.236 38.4987C14.868 39.716 13.332 40.3247 11.628 40.3247C10.14 40.3247 8.832 39.9189 7.704 39.1073C6.6 38.2619 5.712 37.1798 5.04 35.861V39.8682H0V2.33244H5.04V15.8757ZM15.588 25.7162C15.588 24.0254 15.336 22.5713 14.832 21.3539C14.352 20.1027 13.704 19.1559 12.888 18.5134C12.1004 17.8724 11.2055 17.5398 10.296 17.5496C9.384 17.5496 8.52 17.8878 7.704 18.5641C6.912 19.2066 6.264 20.1535 5.76 21.4047C5.28 22.6559 5.04 24.1269 5.04 25.8177C5.04 27.5085 5.28 28.9795 5.76 30.2306C6.264 31.4818 6.912 32.4456 7.704 33.1219C8.52 33.7644 9.384 34.0857 10.296 34.0857C11.232 34.0857 12.096 33.7475 12.888 33.0712C13.704 32.3949 14.352 31.4311 14.832 30.1799C15.336 28.9287 15.588 27.4408 15.588 25.7162ZM26.954 8.41932C26.066 8.41932 25.322 8.03044 24.722 7.25267C24.146 6.44109 23.858 5.44351 23.858 4.25995C23.858 3.07639 24.146 2.09573 24.722 1.31796C25.322 0.506378 26.066 0.100586 26.954 0.100586C27.842 0.100586 28.574 0.506378 29.15 1.31796C29.75 2.09573 30.05 3.07639 30.05 4.25995C30.05 5.44351 29.75 6.44109 29.15 7.25267C28.574 8.03044 27.842 8.41932 26.954 8.41932ZM29.438 11.7671V39.8682H24.398V11.7671H29.438ZM46.226 39.8682L39.458 27.8973V39.8682H34.418V2.33244H39.458V23.6872L46.154 11.7671H52.706L43.922 25.8684L52.778 39.8682H46.226ZM53.145 25.8177C53.145 22.9095 53.565 20.3733 54.405 18.2091C55.245 16.011 56.409 14.3202 57.897 13.1367C59.385 11.9193 61.089 11.3106 63.009 11.3106C65.481 11.3106 67.521 12.1898 69.129 13.9482C70.761 15.6729 71.853 18.1076 72.405 21.2525H66.97C66.682 20.0351 66.19 19.0883 65.494 18.4119C64.822 17.7018 63.982 17.3467 62.974 17.3467C61.534 17.3467 60.394 18.0907 59.554 19.5786C58.714 21.0327 58.294 23.1124 58.294 25.8177C58.294 28.4891 58.714 30.5688 59.554 32.0567C60.394 33.5108 61.534 34.2378 62.974 34.2378C65.014 34.2378 66.346 32.9528 66.97 30.3828H72.406C71.854 33.4263 70.762 35.8441 69.13 37.6363C67.498 39.4286 65.458 40.3247 63.01 40.3247C61.09 40.3247 59.386 39.7329 57.898 38.5494C56.4218 37.3492 55.2125 35.5926 54.406 33.477C53.566 31.2789 53.145 28.7258 53.145 25.8177ZM80.138 16.1294C80.756 14.683 81.6227 13.4793 82.658 12.6294C83.714 11.784 84.914 11.3613 86.258 11.3613V18.8177H84.926C83.342 18.8177 82.142 19.3419 81.326 20.3902C80.534 21.4385 80.138 23.2645 80.138 25.8684V39.8682H75.098V11.7671H80.138V16.1294ZM101.712 35.861C101.16 37.146 100.26 38.2281 99.012 39.1073C97.764 39.9527 96.42 40.3754 94.98 40.3754C93.732 40.3754 92.604 40.0204 91.596 39.3102C90.588 38.6001 89.796 37.6194 89.22 36.3682C88.644 35.1171 88.356 33.6799 88.356 32.0567C88.356 29.4529 89.04 27.3225 90.408 25.6655C91.8 24.0085 93.876 23.18 96.636 23.18H101.712C101.664 21.3878 101.292 19.9675 100.596 18.9192C99.924 17.8371 98.988 17.296 97.788 17.296C96.732 17.296 95.856 17.7018 95.16 18.5134C94.464 19.2912 94.02 20.3902 93.828 21.8105H88.788C89.028 19.7815 89.544 17.9723 90.336 16.383C91.1449 14.7683 92.2362 13.4752 93.504 12.6294C94.824 11.7164 96.3 11.2599 97.932 11.2599C99.612 11.2599 101.124 11.7502 102.468 12.7309C103.803 13.6677 104.916 15.1302 105.672 16.941C106.44 18.767 106.824 20.9143 106.824 23.3829V39.8682H101.712V35.861ZM96.456 34.6436C97.296 34.6436 98.112 34.39 98.904 33.8828C99.72 33.3755 100.392 32.6147 100.92 31.6002C101.448 30.5857 101.712 29.3852 101.712 27.9988V27.7959H96.924C95.772 27.7959 94.908 28.1171 94.332 28.7596C93.78 29.4021 93.504 30.2475 93.504 31.2958C93.504 32.3103 93.756 33.1219 94.26 33.7306C94.788 34.3393 95.52 34.6436 96.456 34.6436ZM117.453 17.6004V39.8682H112.341V17.6004H110.073V11.7671H112.341V10.3468C112.341 6.8976 113.037 4.3614 114.429 2.73823C115.821 1.11507 117.921 0.354206 120.729 0.455654V6.44109C119.505 6.40727 118.653 6.69471 118.173 7.30339C117.693 7.91208 117.453 9.0111 117.453 10.6005V11.7671H124.003V4.81792H129.079V11.7671H133.543V17.6004H129.079V31.1944C129.079 32.1412 129.235 32.8345 129.547 33.2741C129.883 33.6799 130.435 33.8828 131.203 33.8828H133.543V39.8682H130.375C126.127 39.8682 124.003 36.96 124.003 31.1437V17.6004H117.453Z" fill="white"/>
</svg>
